# xmcd CD database file
#
# Track frame offsets:
#	150
#	19632
#	41837
#	60690
#	83822
#	107352
#	127605
#	148487
#	169990
#	187810
#	211407
#
# Disc length: 3077 seconds
#
# Revision: 1
# Processed by: cddbd v1.4PL0 Copyright (c) Steve Scherf et al.
# Submitted via: CDex 1.50Beta3
#
DISCID=910c030b
DTITLE=Eddie Santiago - Serie Millennium 21 Disk1
DYEAR=1999
DGENRE=Salsa
TTITLE0=Amor ciego
TTITLE1=Lluvia
TTITLE2=Silencio
TTITLE3=Que locura enamorarme de ti
TTITLE4=Mi delito
TTITLE5=De Profesion: Tu Amante
TTITLE6=Todas
TTITLE7=De vuelta a casa
TTITLE8=Voy a robarme una luna
TTITLE9=No me hables mal de ella
TTITLE10=Una nueva oportunidad
EXTD=YEAR: 1999
EXTT0=
EXTT1=
EXTT2=
EXTT3=
EXTT4=
EXTT5=
EXTT6=
EXTT7=
EXTT8=
EXTT9=
EXTT10=
PLAYORDER=
